<svg width="128" height="128" viewBox="0 0 128 128" fill="none" xmlns="http://www.w3.org/2000/svg">
<g clip-path="url(#clip0_201_18)">
<path d="M128 63.9915C128 72.3915 126.375 80.429 123.438 87.779C123.263 88.229 123.075 88.679 122.875 89.129C121.862 91.504 120.713 93.804 119.425 96.0165C118.85 97.004 118.262 97.979 117.637 98.929C116.762 100.266 115.85 101.566 114.875 102.829C114.55 103.254 114.225 103.679 113.887 104.091C112.937 105.279 111.938 106.429 110.9 107.541C110.8 107.641 110.713 107.754 110.613 107.854C98.9375 120.254 82.375 127.991 64 127.991C59.7375 127.991 55.5625 127.579 51.5375 126.779C39.0125 124.304 27.8 118.179 19.05 109.554C18.4125 108.929 17.7875 108.291 17.1875 107.629C13.1875 103.341 9.775 98.504 7.0625 93.2415C6.75 92.6415 6.45 92.029 6.1625 91.4165C4.85 88.654 3.725 85.779 2.8125 82.804C2.225 80.879 1.7125 78.9165 1.3125 76.904C0.45 72.7415 0 68.4165 0 63.9915C0 53.3915 2.575 43.404 7.1375 34.604C8.3 32.3665 9.5875 30.1915 11 28.1165C22.5 11.1415 41.95 -0.00854492 64 -0.00854492C89.05 -0.00854492 110.738 14.379 121.25 35.354C122.562 37.9665 123.7 40.6915 124.65 43.4915C125.25 45.254 125.763 47.0415 126.213 48.8665C126.313 49.279 126.413 49.6915 126.5 50.1165C127.3 53.754 127.8 57.5165 127.95 61.3665C127.987 62.229 128 63.1165 128 63.9915Z" fill="#1F3563"/>
<path d="M71.4513 105.28C65.3073 105.28 60.7953 104.288 57.9153 102.304C55.0353 100.32 53.5953 96.768 53.5953 91.648C53.5953 89.344 53.6593 87.36 53.7873 85.696C53.9793 83.968 54.1393 82.304 54.2673 80.704C54.4593 79.104 54.5553 77.28 54.5553 75.232C54.5553 74.08 54.1713 72.992 53.4033 71.968C52.6353 70.88 51.2913 69.984 49.3713 69.28C47.5153 68.576 44.8593 68.192 41.4033 68.128V59.872C44.8593 59.808 47.5153 59.424 49.3713 58.72C51.2913 58.016 52.6353 57.152 53.4033 56.128C54.1713 55.04 54.5553 53.92 54.5553 52.768C54.5553 50.784 54.4593 48.992 54.2673 47.392C54.1393 45.728 53.9793 44.032 53.7873 42.304C53.6593 40.576 53.5953 38.592 53.5953 36.352C53.5953 31.168 55.0353 27.616 57.9153 25.696C60.7953 23.712 65.3073 22.72 71.4513 22.72H78.8433V30.208H74.9073C72.2833 30.208 70.2673 30.4 68.8593 30.784C67.4513 31.168 66.4593 31.84 65.8833 32.8C65.3713 33.76 65.1153 35.136 65.1153 36.928C65.1153 39.488 65.1793 42.016 65.3073 44.512C65.4993 47.008 65.5953 49.696 65.5953 52.576C65.5953 56.224 64.8593 58.88 63.3873 60.544C61.9153 62.144 59.4513 63.232 55.9953 63.808V64.192C59.4513 64.768 61.9153 65.888 63.3873 67.552C64.8593 69.152 65.5953 71.776 65.5953 75.424C65.5953 78.304 65.4993 80.992 65.3073 83.488C65.1793 85.984 65.1153 88.512 65.1153 91.072C65.1153 92.864 65.3713 94.24 65.8833 95.2C66.4593 96.16 67.4513 96.832 68.8593 97.216C70.2673 97.6 72.2833 97.792 74.9073 97.792H78.8433V105.28H71.4513Z" fill="#95BAFF"/>
</g>
<defs>
<clipPath id="clip0_201_18">
<rect width="128" height="128" fill="white"/>
</clipPath>
</defs>
</svg>
